[img]http://www.shotpix.com/images/95304088325044359995.jpg[/img]


 
http://www.imdb.com/title/tt1549920/


The leader of a drug cartel busts out of a courthouse and speeds to the Mexican border, where the only thing in his path is a sheriff and his inexperienced staff.
 


Director: 
Jee-woon Kim

 Writers: 
Andrew Knauer (screenplay), Jeffrey Nachmanoff (rewrite) 

Stars:
 Arnold Schwarzenegger, Forest Whitaker and Johnny Knoxville

Genres:
 Action | Crime | Thriller 





Source: 26k..Thanks
 
http://www.imdb.com/title/tt1549920/

Format                           : AVI
Format/Info                      : Audio Video Interleave
File size                        : 1.15 GiB
Duration                         : 1h 39mn
Overall bit rate                 : 1 662 Kbps
Writing library                  : VirtualDub build 33848/release

Video
ID                               : 0
Format                           : MPEG-4 Visual
Format profile                   : Advanced Simple@L5
Format settings, BVOP            : Yes
Format settings, QPel            : No
Format settings, GMC             : No warppoints
Format settings, Matrix          : Default (H.263)
Muxing mode                      : Packed bitstream
Codec ID                         : XVID
Codec ID/Hint                    : XviD
Duration                         : 1h 39mn
Bit rate                         : 1 524 Kbps
Width                            : 720 pixels
Height                           : 304 pixels
Display aspect ratio             : 2.35:1
Frame rate                       : 25.000 fps
Color space                      : YUV
Chroma subsampling               : 4:2:0
Bit depth                        : 8 bits
Scan type                        : Progressive
Bits/(Pixel*Frame)               : 0.279
Stream size                      : 1.06 GiB (92%)
Writing library                  : XviD 1.2.1 (UTC 2008-12-04)

Audio
ID                               : 1
Format                           : MPEG Audio
Format version                   : Version 1
Format profile                   : Layer 3
Mode                             : Joint stereo
Mode extension                   : MS Stereo
Codec ID                         : 55
Codec ID/Hint                    : MP3
Duration                         : 1h 39mn
Bit rate mode                    : Constant
Bit rate                         : 128 Kbps
Channel(s)                       : 2 channels
Sampling rate                    : 48.0 KHz
Stream size                      : 91.0 MiB (8%)
Alignment                        : Split accross interleaves
Interleave, duration             : 40 ms (1.00 video frame)
Interleave, preload duration     : 500 ms

Workdone:
Video we resized to 2.35:1, adjust contrast, brightness, levels, Saturation and used a denoiser.

Audio: We clean the noise out the best we can specially in the beginning with all that cam noise. We also used a few enhancers and fix the sync

 
http://www.shotpix.com/images/26975619574053877971.png 
http://www.shotpix.com/images/57114362302404454091.png 
http://www.shotpix.com/images/14829243708374699602.png 
http://www.shotpix.com/images/05861488599263801064.png 
http://www.shotpix.com/images/94677482308142686111.png
